<svg width="588" height="452" viewBox="0 0 588 452" fill="none" xmlns="http://www.w3.org/2000/svg">
<path d="M535 226C535 350.816 426.205 452 292 452C157.795 452 49 350.816 49 226C49 101.184 157.795 0 292 0C426.205 0 535 101.184 535 226ZM116.192 226C116.192 316.303 194.904 389.509 292 389.509C389.096 389.509 467.808 316.303 467.808 226C467.808 135.697 389.096 62.4911 292 62.4911C194.904 62.4911 116.192 135.697 116.192 226Z" fill="url(#paint0_linear_20_767)"/>
<path d="M259 71H0V112H259V71Z" fill="white"/>
<path d="M588 331H329V372H588V331Z" fill="white"/>
<path d="M332.364 188.953C331.121 184.633 329.375 180.815 327.126 177.501C324.877 174.127 322.125 171.286 318.869 168.978C315.673 166.611 312.004 164.805 307.861 163.562C303.777 162.32 299.249 161.698 294.278 161.698C284.986 161.698 276.818 164.006 269.775 168.623C262.791 173.239 257.346 179.957 253.44 188.776C249.533 197.535 247.58 208.248 247.58 220.913C247.58 233.579 249.504 244.351 253.351 253.229C257.198 262.107 262.643 268.883 269.686 273.559C276.729 278.175 285.045 280.484 294.633 280.484C303.333 280.484 310.761 278.945 316.916 275.867C323.131 272.73 327.866 268.321 331.121 262.639C334.435 256.957 336.092 250.24 336.092 242.487L343.905 243.641H297.03V214.699H373.113V237.604C373.113 253.584 369.739 267.315 362.992 278.797C356.245 290.22 346.953 299.038 335.116 305.253C323.279 311.408 309.725 314.486 294.455 314.486C277.41 314.486 262.436 310.728 249.533 303.211C236.631 295.635 226.569 284.893 219.349 270.984C212.187 257.017 208.607 240.445 208.607 221.268C208.607 206.531 210.737 193.392 214.999 181.851C219.319 170.25 225.356 160.426 233.109 152.376C240.863 144.327 249.888 138.201 260.187 133.999C270.485 129.797 281.642 127.696 293.656 127.696C303.955 127.696 313.543 129.205 322.42 132.224C331.298 135.183 339.17 139.385 346.036 144.83C352.96 150.275 358.612 156.756 362.992 164.273C367.372 171.73 370.183 179.957 371.426 188.953H332.364Z" fill="white"/>
<defs>
<linearGradient id="paint0_linear_20_767" x1="292" y1="0" x2="292" y2="452" gradientUnits="userSpaceOnUse">
<stop stop-color="#00BFFF" stop-opacity="0.6"/>
<stop offset="1" stop-color="#FF4C4C"/>
</linearGradient>
</defs>
</svg>
