<svg width="137" height="158" viewBox="0 0 137 158" fill="none" xmlns="http://www.w3.org/2000/svg">
<path d="M33.4 157.4V77.3999H103.8V157.4L69.4586 128.396L33.4 157.4Z" fill="#F85A5A"/>
<path d="M29.8 91L32.4912 103.735L43.2015 94.8197L36.8456 106.51L51.4841 104.82L38.5088 111L51.4841 117.18L36.8456 115.49L43.2015 127.18L32.4912 118.265L29.8 131L27.1088 118.265L16.3985 127.18L22.7544 115.49L8.11591 117.18L21.0912 111L8.11591 104.82L22.7544 106.51L16.3985 94.8197L27.1088 103.735L29.8 91Z" fill="white"/>
<path d="M102.6 91L105.291 103.735L116.001 94.8197L109.646 106.51L124.284 104.82L111.309 111L124.284 117.18L109.646 115.49L116.001 127.18L105.291 118.265L102.6 131L99.9088 118.265L89.1985 127.18L95.5544 115.49L80.9159 117.18L93.8912 111L80.9159 104.82L95.5544 106.51L89.1985 94.8197L99.9088 103.735L102.6 91Z" fill="white"/>
<g filter="url(#filter0_d_24_2028)">
<circle cx="68.6889" cy="63.0888" r="56.8889" fill="url(#paint0_linear_24_2028)"/>
</g>
<mask id="mask0_24_2028" style="mask-type:luminance" maskUnits="userSpaceOnUse" x="11" y="6" width="115" height="114">
<circle cx="68.6889" cy="63.0888" r="56.8889" fill="white"/>
</mask>
<g mask="url(#mask0_24_2028)">
<path d="M13.2222 63.0889C13.2222 93.7223 38.0555 118.556 68.6889 118.556C99.3223 118.556 124.156 93.7223 124.156 63.0889" stroke="#A97A13" stroke-width="2.84444"/>
<path d="M107.91 102.31C117.947 92.2722 124.156 78.4056 124.156 63.0889C124.156 54.7426 122.312 46.8268 119.01 39.7266" stroke="#A6611D" stroke-width="2.84444" stroke-linecap="round"/>
<path d="M112.479 29.0416C102.33 16.0067 86.4887 7.62231 68.6889 7.62231C38.0555 7.62231 13.2222 32.4556 13.2222 63.089C13.2222 78.4057 19.4305 92.2723 29.468 102.31" stroke="#A6611D" stroke-width="2.84444" stroke-linecap="round"/>
<path opacity="0.6" d="M112.494 29.0603C102.345 16.0147 86.4972 7.62231 68.689 7.62231C50.7794 7.62231 34.8524 16.1104 24.7114 29.2832" stroke="#FFC875" stroke-width="2.84444" stroke-linecap="round"/>
<path opacity="0.8" d="M68.689 7.62231C58.2835 7.62231 48.5471 10.4876 40.226 15.4723" stroke="#FFECD0" stroke-width="2.84444" stroke-linecap="round"/>
</g>
<path d="M71.4796 85.7727C68.425 85.7727 65.7046 85.2477 63.3182 84.1977C60.9455 83.134 59.0705 81.675 57.6932 79.8204C56.3296 77.9522 55.6273 75.7977 55.5864 73.3568H64.5046C64.5591 74.3795 64.8932 75.2795 65.5069 76.0568C66.1341 76.8204 66.9659 77.4136 68.0023 77.8363C69.0387 78.259 70.2046 78.4704 71.5 78.4704C72.85 78.4704 74.0432 78.2318 75.0796 77.7545C76.1159 77.2772 76.9273 76.6159 77.5137 75.7704C78.1 74.925 78.3932 73.95 78.3932 72.8454C78.3932 71.7272 78.0796 70.7386 77.4523 69.8795C76.8387 69.0068 75.9523 68.3249 74.7932 67.834C73.6478 67.3431 72.2841 67.0977 70.7023 67.0977H66.7955V60.5931H70.7023C72.0387 60.5931 73.2182 60.3613 74.2409 59.8977C75.2773 59.434 76.0819 58.7931 76.6546 57.975C77.2273 57.1431 77.5137 56.175 77.5137 55.0704C77.5137 54.0204 77.2614 53.0999 76.7569 52.309C76.2659 51.5045 75.5705 50.8772 74.6705 50.4272C73.7841 49.9772 72.7478 49.7522 71.5614 49.7522C70.3614 49.7522 69.2637 49.9704 68.2682 50.4068C67.2728 50.8295 66.475 51.4363 65.875 52.2272C65.275 53.0181 64.9546 53.9454 64.9137 55.009H56.425C56.4659 52.5954 57.1546 50.4681 58.4909 48.6272C59.8273 46.7863 61.6273 45.3477 63.8909 44.3113C66.1682 43.2613 68.7387 42.7363 71.6023 42.7363C74.4932 42.7363 77.0228 43.2613 79.1909 44.3113C81.3591 45.3613 83.0432 46.7795 84.2432 48.5659C85.4569 50.3386 86.0569 52.3295 86.0432 54.5386C86.0569 56.884 85.3273 58.8409 83.8546 60.409C82.3955 61.9772 80.4932 62.9727 78.1478 63.3954V63.7227C81.2296 64.1181 83.575 65.1886 85.1841 66.934C86.8069 68.6659 87.6114 70.834 87.5978 73.4386C87.6114 75.825 86.9228 77.9454 85.5319 79.8C84.1546 81.6545 82.2523 83.1136 79.825 84.1772C77.3978 85.2409 74.6159 85.7727 71.4796 85.7727Z" fill="white"/>
<defs>
<filter id="filter0_d_24_2028" x="0.42221" y="0.511062" width="136.533" height="136.533" filterUnits="userSpaceOnUse" color-interpolation-filters="sRGB">
<feFlood flood-opacity="0" result="BackgroundImageFix"/>
<feColorMatrix in="SourceAlpha" type="matrix" values="0 0 0 0 0 0 0 0 0 0 0 0 0 0 0 0 0 0 127 0" result="hardAlpha"/>
<feOffset dy="5.68889"/>
<feGaussianBlur stdDeviation="5.68889"/>
<feColorMatrix type="matrix" values="0 0 0 0 0.752941 0 0 0 0 0.266667 0 0 0 0 0.266667 0 0 0 0.2 0"/>
<feBlend mode="normal" in2="BackgroundImageFix" result="effect1_dropShadow_24_2028"/>
<feBlend mode="normal" in="SourceGraphic" in2="effect1_dropShadow_24_2028" result="shape"/>
</filter>
<linearGradient id="paint0_linear_24_2028" x1="11.8" y1="6.19995" x2="11.8" y2="119.978" gradientUnits="userSpaceOnUse">
<stop stop-color="#EAB674"/>
<stop offset="1" stop-color="#DE7331"/>
</linearGradient>
</defs>
</svg>
