<svg width="137" height="158" viewBox="0 0 137 158" fill="none" xmlns="http://www.w3.org/2000/svg">
<path d="M33.2 157.4V77.3999H103.6V157.4L69.2585 128.396L33.2 157.4Z" fill="#F85A5A"/>
<path d="M29.6 91L32.2912 103.735L43.0015 94.8197L36.6456 106.51L51.2841 104.82L38.3088 111L51.2841 117.18L36.6456 115.49L43.0015 127.18L32.2912 118.265L29.6 131L26.9088 118.265L16.1985 127.18L22.5544 115.49L7.9159 117.18L20.8912 111L7.9159 104.82L22.5544 106.51L16.1985 94.8197L26.9088 103.735L29.6 91Z" fill="white"/>
<path d="M102.4 91L105.091 103.735L115.801 94.8197L109.446 106.51L124.084 104.82L111.109 111L124.084 117.18L109.446 115.49L115.801 127.18L105.091 118.265L102.4 131L99.7088 118.265L88.9985 127.18L95.3544 115.49L80.7159 117.18L93.6912 111L80.7159 104.82L95.3544 106.51L88.9985 94.8197L99.7088 103.735L102.4 91Z" fill="white"/>
<g filter="url(#filter0_d_24_2014)">
<circle cx="68.4889" cy="63.0888" r="56.8889" fill="url(#paint0_linear_24_2014)"/>
</g>
<mask id="mask0_24_2014" style="mask-type:luminance" maskUnits="userSpaceOnUse" x="11" y="6" width="115" height="114">
<circle cx="68.4889" cy="63.0888" r="56.8889" fill="white"/>
</mask>
<g mask="url(#mask0_24_2014)">
<path d="M13.0222 63.0889C13.0222 93.7223 37.8555 118.556 68.4889 118.556C99.1223 118.556 123.956 93.7223 123.956 63.0889" stroke="#74614A" stroke-width="2.84444"/>
<path d="M107.71 102.31C117.747 92.2722 123.956 78.4056 123.956 63.0889C123.956 54.7426 122.112 46.8268 118.81 39.7266" stroke="#968D9A" stroke-width="2.84444" stroke-linecap="round"/>
<path d="M112.279 29.0416C102.13 16.0067 86.2887 7.62231 68.4889 7.62231C37.8555 7.62231 13.0222 32.4556 13.0222 63.089C13.0222 78.4057 19.2305 92.2723 29.268 102.31" stroke="#968D9A" stroke-width="2.84444" stroke-linecap="round"/>
<path opacity="0.6" d="M112.294 29.0603C102.145 16.0147 86.2972 7.62231 68.489 7.62231C50.5794 7.62231 34.6524 16.1104 24.5114 29.2832" stroke="#7D7870" stroke-width="2.84444" stroke-linecap="round"/>
<path opacity="0.8" d="M68.4889 7.62231C58.0834 7.62231 48.3471 10.4876 40.026 15.4723" stroke="#403E3C" stroke-width="2.84444" stroke-linecap="round"/>
</g>
<path d="M53.3954 85.2V78.8181L68.3068 65.0113C69.575 63.784 70.6386 62.6795 71.4977 61.6977C72.3704 60.7159 73.0318 59.7545 73.4818 58.8136C73.9318 57.859 74.1568 56.8295 74.1568 55.725C74.1568 54.4977 73.8773 53.4409 73.3182 52.5545C72.7591 51.6545 71.9954 50.9659 71.0273 50.4886C70.0591 49.9977 68.9613 49.7522 67.7341 49.7522C66.4523 49.7522 65.3341 50.0113 64.3795 50.5295C63.425 51.0477 62.6886 51.7909 62.1704 52.759C61.6523 53.7272 61.3932 54.8795 61.3932 56.2159H52.9863C52.9863 53.4749 53.6068 51.0954 54.8477 49.0772C56.0886 47.059 57.8273 45.4977 60.0636 44.3931C62.3 43.2886 64.8773 42.7363 67.7954 42.7363C70.7954 42.7363 73.4068 43.2681 75.6295 44.3318C77.8659 45.3818 79.6045 46.8409 80.8454 48.709C82.0864 50.5772 82.7068 52.7181 82.7068 55.1318C82.7068 56.7136 82.3932 58.2749 81.7659 59.8159C81.1523 61.3568 80.0545 63.0681 78.4727 64.95C76.8909 66.8181 74.6613 69.0613 71.7841 71.6795L65.6682 77.6727V77.959H83.2591V85.2H53.3954Z" fill="white"/>
<defs>
<filter id="filter0_d_24_2014" x="0.222213" y="0.511062" width="136.533" height="136.533" filterUnits="userSpaceOnUse" color-interpolation-filters="sRGB">
<feFlood flood-opacity="0" result="BackgroundImageFix"/>
<feColorMatrix in="SourceAlpha" type="matrix" values="0 0 0 0 0 0 0 0 0 0 0 0 0 0 0 0 0 0 127 0" result="hardAlpha"/>
<feOffset dy="5.68889"/>
<feGaussianBlur stdDeviation="5.68889"/>
<feColorMatrix type="matrix" values="0 0 0 0 0.752941 0 0 0 0 0.266667 0 0 0 0 0.266667 0 0 0 0.2 0"/>
<feBlend mode="normal" in2="BackgroundImageFix" result="effect1_dropShadow_24_2014"/>
<feBlend mode="normal" in="SourceGraphic" in2="effect1_dropShadow_24_2014" result="shape"/>
</filter>
<linearGradient id="paint0_linear_24_2014" x1="11.6" y1="6.19995" x2="11.6" y2="119.978" gradientUnits="userSpaceOnUse">
<stop stop-color="#BDD5DB"/>
<stop offset="1" stop-color="#878582"/>
</linearGradient>
</defs>
</svg>
