<svg width="113" height="114" viewBox="0 0 113 114" fill="none" xmlns="http://www.w3.org/2000/svg">
<rect x="2.32523" y="2.8917" width="108.066" height="108.066" rx="13.1654" fill="#085D68" stroke="#3DFFFB" stroke-width="4.38848"/>
<path d="M4.51941 34.1597L7.40925 36.6883C8.36161 37.5216 8.90789 38.7255 8.90789 39.9909V73.8589C8.90789 75.1244 8.36161 76.3282 7.40925 77.1616L4.51941 79.6902V34.1597Z" fill="#3DFFFB"/>
<path d="M108.197 79.6902L105.307 77.1616C104.355 76.3283 103.809 75.1244 103.809 73.8589L103.809 39.991C103.809 38.7255 104.355 37.5216 105.307 36.6883L108.197 34.1597L108.197 79.6902Z" fill="#3DFFFB"/>
<path d="M27.2841 56.3001L70.2636 19.842L53.746 43.5935H85.433L32.172 94.0077L54.2516 56.3001H27.2841Z" fill="#3DFFFB"/>
</svg>
