<svg width="113" height="113" viewBox="0 0 113 113" fill="none" xmlns="http://www.w3.org/2000/svg">
<rect x="2.32523" y="2.56943" width="108.066" height="108.066" rx="13.1654" fill="#085D68" stroke="#3DFFFB" stroke-width="4.38848"/>
<path d="M4.51941 33.8374L7.40925 36.366C8.36161 37.1993 8.90789 38.4032 8.90789 39.6687V73.5366C8.90789 74.8021 8.36161 76.006 7.40925 76.8393L4.51941 79.3679V33.8374Z" fill="#3DFFFB"/>
<path d="M108.197 79.3679L105.307 76.8393C104.355 76.006 103.809 74.8021 103.809 73.5366L103.809 39.6687C103.809 38.4032 104.355 37.1993 105.307 36.366L108.197 33.8374L108.197 79.3679Z" fill="#3DFFFB"/>
<path fill-rule="evenodd" clip-rule="evenodd" d="M61.0391 16.1702H51.674L52.8997 26.0293C47.0136 26.6875 41.6294 29.0064 37.2265 32.5066L31.0772 24.7014L24.4551 31.3235L32.2947 37.4295C28.7862 41.8267 26.4578 47.2071 25.7891 53.0909L15.9238 51.9202V61.2853L25.7828 60.0597C26.4408 65.9458 28.7596 71.33 32.2596 75.7331L24.4551 81.8819L31.0772 88.504L37.1825 80.6651C41.5798 84.1739 46.9604 86.5024 52.8445 87.1712L51.6739 97.0355H61.039L59.8135 87.1775C65.6998 86.5194 71.0842 84.2005 75.4873 80.7002L81.6355 88.504L88.2576 81.8819L80.4193 75.777C83.928 71.3796 86.2564 65.999 86.9249 60.1148L96.7892 61.2854V51.9203L86.931 53.1459C86.2727 47.2596 83.9537 41.8753 80.4532 37.4722L88.2577 31.3236L81.6356 24.7015L75.5301 32.5405C71.1327 29.0321 65.7523 26.7039 59.8684 26.0354L61.0391 16.1702ZM38.2449 33.7994C42.4178 30.4806 47.5223 28.2832 53.1027 27.6627L53.5922 31.5997C48.7485 32.1295 44.3183 34.0345 40.7002 36.9159L38.2449 33.7994ZM72.0816 36.9682C68.4721 34.0741 64.0476 32.1546 59.207 31.6089L59.6744 27.6698C65.2524 28.3023 70.3525 30.5107 74.5187 33.839L72.0816 36.9682ZM76.0452 40.9451L79.1605 38.4907C82.4794 42.6637 84.6771 47.7683 85.2976 53.3489L81.3615 53.8383C80.8319 48.9941 78.9269 44.5634 76.0452 40.9451ZM81.352 59.4535L85.2905 59.9209C84.6579 65.4991 82.4494 70.5993 79.1208 74.7657L75.9913 72.3283C78.886 68.7189 80.8059 64.2943 81.352 59.4535ZM72.014 76.2916L74.4688 79.4075C70.2958 82.7262 65.1911 84.9237 59.6104 85.5441L59.1209 81.6065C63.9649 81.0773 68.3956 79.1727 72.014 76.2916ZM53.506 81.5966L53.0384 85.5368C47.4603 84.904 42.3601 82.6953 38.1939 79.3666L40.6324 76.2357C44.2414 79.1303 48.6657 81.0503 53.506 81.5966ZM36.6695 72.2588L33.5524 74.7146C30.2338 70.5417 28.0365 65.4371 27.4162 59.8566L31.3547 59.367C31.8841 64.2105 33.7886 68.6407 36.6695 72.2588ZM31.3643 53.7525L27.4235 53.2849C28.0562 47.707 30.2648 42.607 33.5932 38.4408L36.7238 40.8791C33.8297 44.4882 31.9102 48.9124 31.3643 53.7525ZM78.7689 56.6029C78.7689 68.9801 68.7353 79.0137 56.3581 79.0137C43.981 79.0137 33.9474 68.9801 33.9474 56.6029C33.9474 44.2258 43.981 34.1922 56.3581 34.1922C68.7353 34.1922 78.7689 44.2258 78.7689 56.6029ZM76.4387 56.6033C76.4387 67.6941 67.4478 76.685 56.357 76.685C45.2662 76.685 36.2753 67.6941 36.2753 56.6033C36.2753 45.5124 45.2662 36.5215 56.357 36.5215C67.4478 36.5215 76.4387 45.5124 76.4387 56.6033ZM56.3574 42.6252L60.5477 50.8361L69.6516 52.2841L63.1375 58.8066L64.5737 67.9124L56.3574 63.7326L48.1411 67.9124L49.5773 58.8066L43.0631 52.2841L52.1671 50.8361L56.3574 42.6252Z" fill="#3DFFFB"/>
</svg>
