<svg width="113" height="113" viewBox="0 0 113 113" fill="none" xmlns="http://www.w3.org/2000/svg">
<rect x="2.32523" y="2.24741" width="108.066" height="108.066" rx="13.1654" fill="#085D68" stroke="#3DFFFB" stroke-width="4.38848"/>
<path d="M4.51941 33.5154L7.40925 36.044C8.36161 36.8773 8.90789 38.0812 8.90789 39.3467V73.2146C8.90789 74.4801 8.36161 75.684 7.40925 76.5173L4.51941 79.0459V33.5154Z" fill="#3DFFFB"/>
<path d="M108.197 79.0459L105.307 76.5173C104.355 75.684 103.809 74.4801 103.809 73.2146L103.809 39.3467C103.809 38.0812 104.355 36.8773 105.307 36.044L108.197 33.5154L108.197 79.0459Z" fill="#3DFFFB"/>
<path fill-rule="evenodd" clip-rule="evenodd" d="M65.3568 64.6403C75.1574 55.8909 76.0095 40.8533 67.2602 31.0527C58.5108 21.2522 43.4732 20.4 33.6726 29.1494C23.8721 37.8987 23.0199 52.9364 31.7693 62.7369C40.5186 72.5375 55.5563 73.3896 65.3568 64.6403ZM60.0767 58.7255C66.6104 52.8926 67.1785 42.8675 61.3457 36.3338C55.5128 29.8001 45.4877 29.232 38.954 35.0649C32.4203 40.8978 31.8521 50.9229 37.685 57.4566C43.5179 63.9903 53.543 64.5584 60.0767 58.7255Z" fill="#3DFFFB"/>
<rect width="15.1379" height="19.4902" rx="1.09712" transform="matrix(0.745981 -0.665967 -0.665967 -0.745981 80.2097 92.6423)" fill="#3DFFFB"/>
<rect x="63.2247" y="68.4761" width="8.28979" height="8.407" rx="0.54856" transform="rotate(-41.7566 63.2247 68.4761)" fill="#3DFFFB"/>
<ellipse cx="47.0425" cy="36.4749" rx="2.658" ry="4.3757" transform="rotate(-94.8346 47.0425 36.4749)" fill="#3DFFFB"/>
</svg>
